<svg width="24" height="24" viewBox="0 0 24 24" fill="none" xmlns="http://www.w3.org/2000/svg">
<path d="M13.5602 8.66001H14.5002V7.07001C14.0451 7.02269 13.5878 6.99932 13.1302 7.00001C11.7702 7.00001 10.8402 7.83001 10.8402 9.35001V10.66H9.30518V12.44H10.8402V17H12.6802V12.44H14.2102L14.4402 10.66H12.6802V9.52502C12.6802 9.00002 12.8202 8.66001 13.5602 8.66001Z" fill="white"/>
<path opacity="0.1" fill-rule="evenodd" clip-rule="evenodd" d="M0 12C0 5.37258 5.37258 0 12 0C18.6274 0 24 5.37258 24 12C24 18.6274 18.6274 24 12 24C5.37258 24 0 18.6274 0 12Z" fill="white"/>
</svg>
